<svg xmlns="http://www.w3.org/2000/svg" version="1.1" xmlns:xlink="http://www.w3.org/1999/xlink" xmlns:svgjs="http://svgjs.dev/svgjs" width="1000" height="623" viewBox="0 0 1000 623"><g transform="matrix(1,0,0,1,-0.6060606060606233,0.2522267206477409)"><svg viewBox="0 0 396 247" data-background-color="#ffffff" preserveAspectRatio="xMidYMid meet" height="623" width="1000" xmlns="http://www.w3.org/2000/svg" xmlns:xlink="http://www.w3.org/1999/xlink"><g id="tight-bounds" transform="matrix(1,0,0,1,0.2400000000000091,-0.09999999999999432)"><svg viewBox="0 0 395.52 247.2" height="247.2" width="395.52"><g><svg></svg></g><g><svg viewBox="0 0 395.52 247.2" height="247.2" width="395.52"><g transform="matrix(1,0,0,1,39.55199999999999,87.57770171149144)"><svg viewBox="0 0 316.416 72.04459657701712" height="72.04459657701712" width="316.416"><g><svg viewBox="0 0 316.416 72.04459657701712" height="72.04459657701712" width="316.416"><g><svg viewBox="0 0 316.416 72.04459657701712" height="72.04459657701712" width="316.416"><g><svg viewBox="0 0 316.416 72.04459657701712" height="72.04459657701712" width="316.416"><g id="textblocktransform"><svg viewBox="0 0 316.416 72.04459657701712" height="72.04459657701712" width="316.416" id="textblock"><g><svg viewBox="0 0 316.416 72.04459657701712" height="72.04459657701712" width="316.416"><g transform="matrix(1,0,0,1,0,0)"><svg width="316.416" viewBox="0.4000000059604645 -36.75 165.52999877929688 37.25" height="72.04459657701712" data-palette-color="#ededed"><g class="undefined-text-0" data-fill-palette-color="primary" id="text-0"><path d="M7.2 0L7.2 0 7.2-34.4Q7.2-34.4 7.3-34.48 7.4-34.55 8-34.55L8-34.55 10.4-34.55Q11.05-34.55 11.15-34.48 11.25-34.4 11.25-34.4L11.25-34.4 11.25-0.8Q11.25-0.4 11.08-0.25 10.9-0.1 10.05-0.05 9.2 0 7.2 0ZM17.4-31.2L0.4-31.2 0.4-34.2Q0.4-35 1.25-35L1.25-35 18.25-35 18.25-32Q18.25-31.55 18.05-31.38 17.85-31.2 17.4-31.2L17.4-31.2ZM28.1 0.5L28.1 0.5Q26.4 0.5 24.92 0.03 23.45-0.45 22.37-1.7 21.3-2.95 20.72-5.25 20.15-7.55 20.15-11.2L20.15-11.2Q20.15-15.9 20.9-18.75 21.65-21.6 22.9-23.05 24.15-24.5 25.75-25 27.35-25.5 29-25.5L29-25.5Q32.15-25.5 33.75-23.5 35.35-21.5 35.35-17.45L35.35-17.45Q35.35-15.8 35.22-14.05 35.1-12.3 34.75-10.95L34.75-10.95Q33.05-10.6 30.95-10.45 28.85-10.3 26.95-10.23 25.05-10.15 23.82-10.15 22.6-10.15 22.6-10.15L22.6-10.15 22.65-13.45Q22.65-13.45 23.6-13.43 24.55-13.4 25.92-13.43 27.3-13.45 28.72-13.58 30.15-13.7 31.15-14L31.15-14Q31.3-14.7 31.35-15.5 31.4-16.3 31.4-17L31.4-17Q31.35-19.7 30.77-20.83 30.2-21.95 28.55-21.95L28.55-21.95Q27.7-21.95 26.92-21.48 26.15-21 25.55-19.83 24.95-18.65 24.62-16.6 24.3-14.55 24.3-11.35L24.3-11.35Q24.3-9 24.57-7.45 24.85-5.9 25.42-5.05 26-4.2 26.87-3.83 27.75-3.45 29-3.45L29-3.45Q30.5-3.45 31.97-3.85 33.45-4.25 34.65-5L34.65-5Q34.9-4.4 34.97-3.63 35.05-2.85 35.05-2.25L35.05-2.25Q35.05-1.5 34.1-0.85 33.15-0.2 31.57 0.15 30 0.5 28.1 0.5ZM45.65 0.5L45.65 0.5Q43.8 0.5 42.42 0.03 41.05-0.45 40.1-1.78 39.15-3.1 38.67-5.55 38.2-8 38.2-11.95L38.2-11.95Q38.2-16.45 39-19.15 39.8-21.85 41.12-23.23 42.45-24.6 44.02-25.05 45.6-25.5 47.15-25.5L47.15-25.5Q48.9-25.5 50.1-24.88 51.3-24.25 51.3-23.25L51.3-23.25Q51.3-22.85 51.22-22.25 51.15-21.65 50.9-21L50.9-21Q50.3-21.35 49.35-21.63 48.4-21.9 47.35-21.9L47.35-21.9Q46.5-21.9 45.62-21.58 44.75-21.25 44-20.25 43.25-19.25 42.82-17.25 42.4-15.25 42.4-11.95L42.4-11.95Q42.4-9.3 42.67-7.58 42.95-5.85 43.5-4.88 44.05-3.9 44.9-3.5 45.75-3.1 46.85-3.1L46.85-3.1Q48.05-3.1 49.12-3.48 50.2-3.85 50.85-4.25L50.85-4.25Q51.05-3.6 51.12-3.08 51.2-2.55 51.2-2.05L51.2-2.05Q51.2-1 49.65-0.25 48.1 0.5 45.65 0.5ZM54.49 0L54.49 0 54.49-34.9Q54.49-35.85 54.82-36.23 55.14-36.6 56.02-36.68 56.89-36.75 58.54-36.75L58.54-36.75 58.54-23.55Q59.69-24.55 61.22-25.03 62.74-25.5 64.14-25.5L64.14-25.5Q66.29-25.5 67.42-24.73 68.54-23.95 68.94-22.5 69.34-21.05 69.34-18.9L69.34-18.9 69.34-0.8Q69.34-0.4 69.12-0.25 68.89-0.1 68.02-0.05 67.14 0 65.19 0L65.19 0 65.19-17.8Q65.19-19.45 64.67-20.6 64.14-21.75 62.29-21.75L62.29-21.75Q61.44-21.75 60.44-21.45 59.44-21.15 58.54-20.35L58.54-20.35 58.54-0.8Q58.54-0.4 58.37-0.25 58.19-0.1 57.34-0.05 56.49 0 54.49 0Z" fill="#ededed" data-fill-palette-color="primary"></path><path d="M82.09-7.7L80.34-7.7 77.74-15.7Q77.59-16.1 77.27-17.3 76.94-18.5 76.47-20.13 75.99-21.75 75.52-23.45 75.04-25.15 74.64-26.65 74.24-28.15 73.97-29.08 73.69-30 73.69-30L73.69-30 75.29-35 80.04-19.85Q80.29-19.1 80.57-18.15 80.84-17.2 81.07-16.32 81.29-15.45 81.47-14.88 81.64-14.3 81.64-14.3L81.64-14.3Q81.64-14.3 81.77-14.88 81.89-15.45 82.12-16.32 82.34-17.2 82.59-18.1 82.84-19 83.09-19.75L83.09-19.75 87.49-34.2 89.29-29.8Q89.29-29.8 89.04-28.9 88.79-28 88.39-26.55 87.99-25.1 87.52-23.4 87.04-21.7 86.59-20.1 86.14-18.5 85.79-17.32 85.44-16.15 85.29-15.7L85.29-15.7 82.64-8.1Q82.49-7.7 82.09-7.7L82.09-7.7ZM71.49 0L71.49 0 71.49-34.2Q71.49-34.75 71.74-34.88 71.99-35 72.34-35L72.34-35 75.29-35 75.54-28.6 74.49-26.95Q74.49-26.95 74.57-26.25 74.64-25.55 74.72-24.38 74.79-23.2 74.92-21.68 75.04-20.15 75.17-18.53 75.29-16.9 75.37-15.3 75.44-13.7 75.44-12.4L75.44-12.4 75.54-0.8Q75.54-0.4 75.32-0.25 75.09-0.1 74.24-0.05 73.39 0 71.49 0ZM87.44 0L87.44 0 87.64-12.2Q87.64-13.5 87.72-15.1 87.79-16.7 87.91-18.4 88.04-20.1 88.14-21.68 88.24-23.25 88.34-24.5 88.44-25.75 88.49-26.5 88.54-27.25 88.54-27.25L88.54-27.25 87.49-28.2 87.49-34.2Q87.64-34.55 87.77-34.77 87.89-35 88.29-35L88.29-35Q89.94-35 90.64-35 91.34-35 91.47-35 91.59-35 91.59-35L91.59-35 91.59-0.8Q91.59-0.4 91.42-0.25 91.24-0.1 90.39-0.05 89.54 0 87.44 0ZM102.99 0.5L102.99 0.5Q101.09 0.5 99.61 0.03 98.14-0.45 97.14-1.8 96.14-3.15 95.64-5.73 95.14-8.3 95.14-12.5L95.14-12.5Q95.14-19.35 97.34-22.43 99.54-25.5 103.44-25.5L103.44-25.5Q106.09-25.5 107.81-24.4 109.54-23.3 110.39-20.5 111.24-17.7 111.24-12.65L111.24-12.65Q111.24-5.65 109.14-2.58 107.04 0.5 102.99 0.5ZM103.09-2.95L103.09-2.95Q104.19-2.95 105.01-3.73 105.84-4.5 106.34-6.6 106.84-8.7 106.84-12.6L106.84-12.6Q106.84-16.6 106.44-18.63 106.04-20.65 105.29-21.35 104.54-22.05 103.29-22.05L103.29-22.05Q102.19-22.05 101.34-21.28 100.49-20.5 100.01-18.4 99.54-16.3 99.54-12.4L99.54-12.4Q99.54-9.35 99.79-7.45 100.04-5.55 100.46-4.58 100.89-3.6 101.59-3.28 102.29-2.95 103.09-2.95ZM120.79 0.5L120.79 0.5Q118.79 0.5 117.31 0.1 115.84-0.3 114.94-1L114.94-1 114.94-34.85Q114.94-35.8 115.26-36.2 115.59-36.6 116.46-36.68 117.34-36.75 118.99-36.75L118.99-36.75 118.99-23.75Q120.04-24.55 121.31-25.03 122.59-25.5 124.34-25.5L124.34-25.5Q126.34-25.5 127.69-24.55 129.04-23.6 129.74-21.45 130.44-19.3 130.44-15.65L130.44-15.65Q130.44-11.35 129.86-8.4 129.29-5.45 128.26-3.7 127.24-1.95 125.99-1.03 124.74-0.1 123.39 0.2 122.04 0.5 120.79 0.5ZM121.34-3.1L121.34-3.1Q121.99-3.1 122.79-3.5 123.59-3.9 124.29-5.1 124.99-6.3 125.46-8.63 125.94-10.95 125.94-14.75L125.94-14.75Q125.94-17.45 125.54-19 125.14-20.55 124.41-21.2 123.69-21.85 122.49-21.85L122.49-21.85Q121.54-21.85 120.66-21.53 119.79-21.2 118.99-20.45L118.99-20.45 118.99-3.75Q119.34-3.5 119.89-3.3 120.44-3.1 121.34-3.1ZM134.13 0L134.13 0 134.13-23.15Q134.13-24.1 134.48-24.48 134.83-24.85 135.73-24.93 136.63-25 138.28-25L138.28-25 138.28-0.8Q138.28-0.4 138.11-0.25 137.93-0.1 137.08-0.05 136.23 0 134.13 0ZM136.08-28.45L136.08-28.45Q135.13-28.5 134.58-29.18 134.03-29.85 134.03-31.6L134.03-31.6Q134.08-32.95 134.63-33.77 135.18-34.6 136.38-34.6L136.38-34.6Q137.53-34.6 137.98-33.95 138.43-33.3 138.38-31.7L138.38-31.7Q138.38-30.2 137.81-29.33 137.23-28.45 136.08-28.45ZM142.88 0L142.88 0 142.88-34.9Q142.88-35.85 143.21-36.23 143.53-36.6 144.43-36.68 145.33-36.75 146.93-36.75L146.93-36.75 146.93-0.8Q146.93-0.4 146.76-0.25 146.58-0.1 145.76-0.05 144.93 0 142.88 0ZM158.68 0.5L158.68 0.5Q156.98 0.5 155.5 0.03 154.03-0.45 152.95-1.7 151.88-2.95 151.3-5.25 150.73-7.55 150.73-11.2L150.73-11.2Q150.73-15.9 151.48-18.75 152.23-21.6 153.48-23.05 154.73-24.5 156.33-25 157.93-25.5 159.58-25.5L159.58-25.5Q162.73-25.5 164.33-23.5 165.93-21.5 165.93-17.45L165.93-17.45Q165.93-15.8 165.8-14.05 165.68-12.3 165.33-10.95L165.33-10.95Q163.63-10.6 161.53-10.45 159.43-10.3 157.53-10.23 155.63-10.15 154.4-10.15 153.18-10.15 153.18-10.15L153.18-10.15 153.23-13.45Q153.23-13.45 154.18-13.43 155.13-13.4 156.5-13.43 157.88-13.45 159.3-13.58 160.73-13.7 161.73-14L161.73-14Q161.88-14.7 161.93-15.5 161.98-16.3 161.98-17L161.98-17Q161.93-19.7 161.35-20.83 160.78-21.95 159.13-21.95L159.13-21.95Q158.28-21.95 157.5-21.48 156.73-21 156.13-19.83 155.53-18.65 155.2-16.6 154.88-14.55 154.88-11.35L154.88-11.35Q154.88-9 155.15-7.45 155.43-5.9 156-5.05 156.58-4.2 157.45-3.83 158.33-3.45 159.58-3.45L159.58-3.45Q161.08-3.45 162.55-3.85 164.03-4.25 165.23-5L165.23-5Q165.48-4.4 165.55-3.63 165.63-2.85 165.63-2.25L165.63-2.25Q165.63-1.5 164.68-0.85 163.73-0.2 162.15 0.15 160.58 0.5 158.68 0.5Z" fill="#dedede" data-fill-palette-color="secondary"></path></g></svg></g></svg></g></svg></g></svg></g><g></g></svg></g></svg></g></svg></g><g mask="url(#bbc43796-1b0f-4e75-a5e4-ad92998bbb45)"><g transform="matrix(5.108333333333333, 0, 0, 5.108333333333333, 118.50676421483357, 1)"><svg xmlns="http://www.w3.org/2000/svg" xmlns:xlink="http://www.w3.org/1999/xlink" version="1.1" x="0" y="0" viewBox="8.485000610351562 0 31.02899932861328 48" enable-background="new 0 0 48 48" xml:space="preserve" height="48" width="31.02899932861328" class="icon-none" data-fill-palette-color="accent" id="none"><g fill="#ededed" data-fill-palette-color="accent"><path d="M33.749 48H14.25c-3.179 0-5.765-2.587-5.765-5.766V5.764C8.486 2.585 11.072 0 14.25 0h19.499c3.179 0 5.765 2.586 5.765 5.764v36.47C39.514 45.413 36.928 48 33.749 48zM14.25 2c-2.075 0-3.764 1.689-3.765 3.765v36.47c0 2.076 1.689 3.766 3.765 3.766h19.499c2.076 0 3.765-1.689 3.765-3.766V5.764C37.514 3.688 35.825 2 33.749 2H14.25z" fill="#ededed" data-fill-palette-color="accent"></path><path d="M33.835 36.678H14.166c-0.552 0-1-0.447-1-1V8.614c0-0.552 0.448-1 1-1h19.669c0.553 0 1 0.448 1 1v27.063C34.835 36.23 34.388 36.678 33.835 36.678zM15.166 34.678h17.669V9.614H15.166V34.678z" fill="#ededed" data-fill-palette-color="accent"></path><path d="M27.173 6.283h-6.345c-0.552 0-1-0.448-1-1s0.448-1 1-1h6.345c0.553 0 1 0.448 1 1S27.726 6.283 27.173 6.283z" fill="#ededed" data-fill-palette-color="accent"></path><path d="M24 44.507c-1.688 0-3.062-1.373-3.062-3.062s1.374-3.063 3.062-3.063 3.063 1.374 3.063 3.063S25.688 44.507 24 44.507zM24 40.383c-0.585 0-1.062 0.477-1.062 1.063 0 0.585 0.477 1.062 1.062 1.062 0.586 0 1.063-0.477 1.063-1.062C25.063 40.859 24.586 40.383 24 40.383z" fill="#ededed" data-fill-palette-color="accent"></path></g></svg></g></g></svg></g><defs><mask id="bbc43796-1b0f-4e75-a5e4-ad92998bbb45"><rect width="640" height="400" fill="white"></rect><rect width="348.05760000000004" height="106.0605969400489" fill="black" y="70.56970152997555" x="23.731199999999973" id="transform-me"></rect></mask></defs></svg><rect width="395.52" height="247.2" fill="none" stroke="none" visibility="hidden"></rect></g></svg></g></svg>